<svg viewBox="0 0 40 40" fill="none" xmlns="http://www.w3.org/2000/svg" class="w-4 h-4"><path d="M2.54 28.86C1.24 26.2 0.5 23.2 0.5 20C0.5 16.8 1.23 13.8 2.54 11.14L9.24 16.28C8.87 17.45 8.66 18.7 8.66 20C8.66 21.3 8.86 22.55 9.26 23.72L2.54 28.86V28.86Z" fill="#FBBC05"></path><path d="M2.54 11.14C5.8 4.52 12.57 0 20.44 0C25.54 0 30.07 1.9 33.6 5L27.8 10.82C25.8 9.18 23.27 8.18 20.45 8.18C15.22 8.18 10.8 11.58 9.25 16.28L2.55 11.14H2.54Z" fill="#EA4335"></path><path d="M2.54 28.86L9.24 23.7C10.79 28.42 15.21 31.82 20.44 31.82C25.99 31.82 30.16 29 31.16 24.09H20.46V16.35H39.06C39.32 17.55 39.5 18.81 39.5 19.99C39.5 32.72 30.43 39.99 20.45 39.99C12.57 39.99 5.78 35.46 2.55 28.85L2.54 28.86Z" fill="#34A853"></path><path d="M33.46 35.02L27.09 30.08C29.16 28.76 30.61 26.73 31.15 24.08H20.45V16.36H39.05C39.31 17.56 39.49 18.82 39.49 20C39.49 26.52 37.11 31.6 33.45 35.02H33.46Z" fill="#4285F4"></path></svg>