<svg viewBox="0 0 146 138" fill="none" xmlns="http://www.w3.org/2000/svg" class="w-4 h-4"><rect x="72.7742" width="97.2615" height="97.2615" rx="11" transform="rotate(45 72.7742 0)" fill="#3D4EA8"></rect><rect y="35" width="146" height="68" rx="9" fill="url(#aida)"></rect><path d="M25.912 52H36.328C37.48 52 38.2 52.528 38.488 53.584L49.192 84.208C49.224 84.304 49.24 84.464 49.24 84.688C49.24 84.88 49.128 85.088 48.904 85.312C48.712 85.504 48.472 85.6 48.184 85.6H39.304C38.344 85.6 37.72 85.2 37.432 84.4L36.28 81.232H25.96L24.808 84.4C24.52 85.2 23.896 85.6 22.936 85.6H14.056C13.768 85.6 13.512 85.504 13.288 85.312C13.096 85.088 13 84.88 13 84.688C13 84.464 13.016 84.304 13.048 84.208L23.752 53.584C24.04 52.528 24.76 52 25.912 52ZM28.408 71.872H33.832L31.096 62.944L28.408 71.872Z" fill="white"></path><path d="M61.2955 85.6H51.5035C51.1515 85.6 50.8475 85.472 50.5915 85.216C50.3355 84.96 50.2075 84.656 50.2075 84.304V53.296C50.2075 52.944 50.3355 52.64 50.5915 52.384C50.8475 52.128 51.1515 52 51.5035 52H61.2955C61.6475 52 61.9515 52.128 62.2075 52.384C62.4635 52.64 62.5915 52.944 62.5915 53.296V84.304C62.5915 84.656 62.4635 84.96 62.2075 85.216C61.9515 85.472 61.6475 85.6 61.2955 85.6Z" fill="white"></path><path d="M67.2329 52H81.0569C85.7289 52 89.5689 53.168 92.5769 55.504C95.6169 57.808 97.1369 61.04 97.1369 65.2V72.352C97.1369 76.704 95.6649 80 92.7209 82.24C89.7769 84.48 85.9049 85.6 81.1049 85.6H67.2329C66.8809 85.6 66.5769 85.472 66.3209 85.216C66.0649 84.96 65.9369 84.656 65.9369 84.304V53.296C65.9369 52.944 66.0649 52.64 66.3209 52.384C66.5769 52.128 66.8809 52 67.2329 52ZM77.9369 61.36V76.24H81.0569C82.1449 76.24 83.0089 75.92 83.6489 75.28C84.3209 74.608 84.6569 73.632 84.6569 72.352V65.2C84.6569 62.64 83.4569 61.36 81.0569 61.36H77.9369Z" fill="white"></path><path d="M110.038 52H120.454C121.606 52 122.326 52.528 122.614 53.584L133.318 84.208C133.35 84.304 133.366 84.464 133.366 84.688C133.366 84.88 133.254 85.088 133.03 85.312C132.838 85.504 132.598 85.6 132.31 85.6H123.43C122.47 85.6 121.846 85.2 121.558 84.4L120.406 81.232H110.086L108.934 84.4C108.646 85.2 108.022 85.6 107.062 85.6H98.1816C97.8936 85.6 97.6376 85.504 97.4136 85.312C97.2216 85.088 97.1256 84.88 97.1256 84.688C97.1256 84.464 97.1416 84.304 97.1736 84.208L107.878 53.584C108.166 52.528 108.886 52 110.038 52ZM112.534 71.872H117.958L115.222 62.944L112.534 71.872Z" fill="white"></path><defs><linearGradient id="aida" x1="-1.08778e-06" y1="69" x2="146" y2="69" gradientUnits="userSpaceOnUse"><stop stop-color="#FE8C00"></stop><stop offset="1" stop-color="#F83600"></stop></linearGradient></defs></svg>