<svg viewBox="0 0 40 40" fill="none" xmlns="http://www.w3.org/2000/svg" class="w-4 h-4"><path d="M20 40C31.0457 40 40 31.0457 40 20C40 8.9543 31.0457 0 20 0C8.9543 0 0 8.9543 0 20C0 31.0457 8.9543 40 20 40Z" fill="#1877F2"></path><path fill-rule="evenodd" clip-rule="evenodd" d="M27.7844 25.7812L28.6712 19.9996H23.124V16.2477C23.124 14.666 23.8988 13.1242 26.3834 13.1242H28.9055V8.202C28.9055 8.202 26.6166 7.8114 24.4283 7.8114C19.8596 7.8114 16.8736 10.5803 16.8736 15.5931V19.9996H11.7952V25.7812H16.8736V39.7578C17.8919 39.9176 18.9356 40.0008 19.9988 40.0008C21.062 40.0008 22.1057 39.9176 23.124 39.7578V25.7812H27.7844Z" fill="white"></path></svg>